<svg width="35" height="54" viewBox="0 0 35 54" fill="none" xmlns="http://www.w3.org/2000/svg">
<path d="M13.998 20.0005H3.49805C3.10022 20.0005 2.71869 19.8425 2.43739 19.5611C2.15608 19.2798 1.99805 18.8983 1.99805 18.5005V5.50049C1.99805 5.10266 2.15608 4.72113 2.43739 4.43983C2.71869 4.15852 3.10022 4.00049 3.49805 4.00049H20.498C20.8959 4.00049 21.2774 4.15852 21.5587 4.43983C21.84 4.72113 21.998 5.10266 21.998 5.50049V11.53M19.498 20.5005V14.5005M19.498 14.5005L16.998 17.0005M19.498 14.5005L21.998 17.0005" stroke="white" stroke-width="1.83333" stroke-linecap="round" stroke-linejoin="round"/>
<path d="M1.99805 5.50049C1.99805 5.10266 2.15608 4.72113 2.43739 4.43983C2.71869 4.15852 3.10022 4.00049 3.49805 4.00049H20.498C20.8959 4.00049 21.2774 4.15852 21.5587 4.43983C21.84 4.72113 21.998 5.10266 21.998 5.50049V10.0005H1.99805V5.50049Z" stroke="white" stroke-width="1.83333"/>
<path d="M3.99805 7.00049C3.99805 6.4482 4.44576 6.00049 4.99805 6.00049C5.55033 6.00049 5.99805 6.4482 5.99805 7.00049C5.99805 7.55277 5.55033 8.00049 4.99805 8.00049C4.44576 8.00049 3.99805 7.55277 3.99805 7.00049Z" fill="white"/>
<path d="M6.99805 7.00049C6.99805 6.4482 7.44576 6.00049 7.99805 6.00049C8.55033 6.00049 8.99805 6.4482 8.99805 7.00049C8.99805 7.55277 8.55033 8.00049 7.99805 8.00049C7.44576 8.00049 6.99805 7.55277 6.99805 7.00049Z" fill="white"/>
<path d="M4.976 48.16C4.10133 48.16 3.264 48.0373 2.464 47.792C1.664 47.536 1.02933 47.2107 0.56 46.816L1.28 45.2C1.728 45.552 2.28267 45.8453 2.944 46.08C3.60533 46.3147 4.28267 46.432 4.976 46.432C5.56267 46.432 6.03733 46.368 6.4 46.24C6.76267 46.112 7.02933 45.9413 7.2 45.728C7.37067 45.504 7.456 45.2533 7.456 44.976C7.456 44.6347 7.33333 44.3627 7.088 44.16C6.84267 43.9467 6.52267 43.7813 6.128 43.664C5.744 43.536 5.312 43.4187 4.832 43.312C4.36267 43.2053 3.888 43.0827 3.408 42.944C2.93867 42.7947 2.50667 42.608 2.112 42.384C1.728 42.1493 1.41333 41.84 1.168 41.456C0.922667 41.072 0.8 40.5813 0.8 39.984C0.8 39.376 0.96 38.8213 1.28 38.32C1.61067 37.808 2.10667 37.4027 2.768 37.104C3.44 36.7947 4.288 36.64 5.312 36.64C5.984 36.64 6.65067 36.7253 7.312 36.896C7.97333 37.0667 8.54933 37.312 9.04 37.632L8.384 39.248C7.88267 38.9493 7.36533 38.7307 6.832 38.592C6.29867 38.4427 5.78667 38.368 5.296 38.368C4.72 38.368 4.25067 38.4373 3.888 38.576C3.536 38.7147 3.27467 38.896 3.104 39.12C2.944 39.344 2.864 39.6 2.864 39.888C2.864 40.2293 2.98133 40.5067 3.216 40.72C3.46133 40.9227 3.776 41.0827 4.16 41.2C4.55467 41.3173 4.992 41.4347 5.472 41.552C5.952 41.6587 6.42667 41.7813 6.896 41.92C7.376 42.0587 7.808 42.24 8.192 42.464C8.58667 42.688 8.90133 42.992 9.136 43.376C9.38133 43.76 9.504 44.2453 9.504 44.832C9.504 45.4293 9.33867 45.984 9.008 46.496C8.688 46.9973 8.192 47.4027 7.52 47.712C6.848 48.0107 6 48.16 4.976 48.16ZM13.4865 41.456H19.0545V43.168H13.4865V41.456ZM13.6465 46.256H19.9665V48H11.5665V36.8H19.7425V38.544H13.6465V46.256ZM27.5333 48.16C26.6586 48.16 25.8533 48.016 25.1173 47.728C24.3813 47.44 23.7413 47.04 23.1973 46.528C22.6533 46.0053 22.2319 45.3973 21.9333 44.704C21.6346 44 21.4853 43.232 21.4853 42.4C21.4853 41.568 21.6346 40.8053 21.9333 40.112C22.2319 39.408 22.6533 38.8 23.1973 38.288C23.7413 37.7653 24.3813 37.36 25.1173 37.072C25.8533 36.784 26.6533 36.64 27.5173 36.64C28.3919 36.64 29.1919 36.784 29.9173 37.072C30.6533 37.36 31.2933 37.7653 31.8373 38.288C32.3813 38.8 32.8026 39.408 33.1013 40.112C33.3999 40.8053 33.5493 41.568 33.5493 42.4C33.5493 43.232 33.3999 44 33.1013 44.704C32.8026 45.408 32.3813 46.016 31.8373 46.528C31.2933 47.04 30.6533 47.44 29.9173 47.728C29.1919 48.016 28.3973 48.16 27.5333 48.16ZM27.5173 46.336C28.0826 46.336 28.6053 46.24 29.0853 46.048C29.5653 45.856 29.9813 45.584 30.3333 45.232C30.6853 44.8693 30.9573 44.4533 31.1493 43.984C31.3519 43.504 31.4533 42.976 31.4533 42.4C31.4533 41.824 31.3519 41.3013 31.1493 40.832C30.9573 40.352 30.6853 39.936 30.3333 39.584C29.9813 39.2213 29.5653 38.944 29.0853 38.752C28.6053 38.56 28.0826 38.464 27.5173 38.464C26.9519 38.464 26.4293 38.56 25.9493 38.752C25.4799 38.944 25.0639 39.2213 24.7013 39.584C24.3493 39.936 24.0719 40.352 23.8693 40.832C23.6773 41.3013 23.5813 41.824 23.5813 42.4C23.5813 42.9653 23.6773 43.488 23.8693 43.968C24.0719 44.448 24.3493 44.8693 24.7013 45.232C25.0533 45.584 25.4693 45.856 25.9493 46.048C26.4293 46.24 26.9519 46.336 27.5173 46.336Z" fill="white"/>
</svg>
