<svg width="34" height="35" viewBox="0 0 34 35" fill="none" xmlns="http://www.w3.org/2000/svg">
<path d="M6.37435 21.7502L1.41602 16.7918L2.90352 15.3043L5.38268 17.7835C5.24102 17.146 5.13477 16.5085 5.06393 15.871C4.9931 15.2335 4.95768 14.596 4.95768 13.9585C4.95768 12.0224 5.27643 10.1453 5.91393 8.32725C6.55143 6.50919 7.47227 4.84461 8.67643 3.3335L10.1993 4.85641C9.18407 6.17863 8.41057 7.61325 7.87885 9.16025C7.34713 10.7072 7.08174 12.3067 7.08268 13.9585C7.08268 14.5724 7.1181 15.1806 7.18893 15.7832C7.25977 16.3857 7.37782 16.9817 7.5431 17.571L9.84518 15.3043L11.3327 16.7918L6.37435 21.7502ZM23.3035 30.0022C22.7605 30.1911 22.2117 30.2799 21.6573 30.2686C21.103 30.2572 20.5656 30.1212 20.0452 29.8606L10.766 25.5397L11.4035 24.1231C11.6396 23.6509 11.9702 23.2674 12.3952 22.9727C12.8202 22.6781 13.2924 22.5067 13.8118 22.4585L16.2202 22.2814L12.2535 11.4085C12.1118 11.0307 12.1237 10.6704 12.2889 10.3276C12.4542 9.98475 12.7257 9.74297 13.1035 9.60225C13.4813 9.46058 13.8411 9.47238 14.183 9.63766C14.5249 9.80294 14.7672 10.0745 14.9098 10.4522L20.1514 24.8668L16.6098 25.1147L21.2493 27.2752C21.4146 27.346 21.5917 27.3876 21.7806 27.3998C21.9695 27.4121 22.1466 27.3942 22.3118 27.346L27.8723 25.3272C28.6042 25.0675 29.1355 24.5774 29.466 23.8567C29.7966 23.1361 29.832 22.4103 29.5723 21.6793L27.6243 16.3668C27.4827 15.9891 27.4945 15.6287 27.6598 15.2859C27.825 14.9431 28.0966 14.7013 28.4743 14.5606C28.8521 14.4189 29.212 14.4307 29.5538 14.596C29.8957 14.7613 30.138 15.0328 30.2806 15.4106L32.2285 20.7231C32.7716 22.2106 32.7182 23.6565 32.0684 25.0609C31.4187 26.4653 30.3505 27.4395 28.8639 27.9835L23.3035 30.0022ZM20.116 20.6168L18.2035 15.2689C18.0618 14.8911 18.0737 14.5308 18.2389 14.188C18.4042 13.8452 18.6757 13.6034 19.0535 13.4627C19.4313 13.321 19.7916 13.3328 20.1344 13.4981C20.4773 13.6634 20.719 13.9349 20.8598 14.3127L22.8077 19.6252L20.116 20.6168ZM24.1181 19.1647L22.666 15.1627C22.5243 14.7849 22.5362 14.4246 22.7014 14.0817C22.8667 13.7389 23.1382 13.4971 23.516 13.3564C23.8938 13.2147 24.2541 13.2266 24.5969 13.3918C24.9398 13.5571 25.1815 13.8286 25.3223 14.2064L26.7743 18.1731L24.1181 19.1647Z" fill="white"/>
</svg>
