<?xml version="1.0" standalone="no"?>
<!DOCTYPE svg PUBLIC "-//W3C//DTD SVG 20010904//EN"
 "http://www.w3.org/TR/2001/REC-SVG-20010904/DTD/svg10.dtd">
<svg version="1.0" xmlns="http://www.w3.org/2000/svg"
 width="538.000000pt" height="538.000000pt" viewBox="0 0 538.000000 538.000000"
 preserveAspectRatio="xMidYMid meet">
<metadata>
Created by potrace 1.16, written by Peter Selinger 2001-2019
</metadata>
<g transform="translate(0.000000,538.000000) scale(0.100000,-0.100000)"
fill="#000" stroke="none" background-color='white'>
<path d="M2545 5264 c-460 -30 -934 -183 -1282 -414 -460 -306 -763 -658 -976
-1135 -164 -367 -236 -800 -207 -1258 15 -248 48 -402 142 -662 156 -432 436
-825 803 -1127 450 -369 927 -559 1506 -600 521 -37 1137 123 1574 409 326
214 558 448 785 790 171 259 264 467 339 760 62 244 75 355 75 658 0 225 -3
277 -23 390 -29 165 -79 363 -124 486 -90 246 -257 545 -415 739 -104 127
-315 338 -426 424 -357 279 -764 447 -1259 521 -101 16 -396 26 -512 19z m492
-279 c253 -34 564 -130 753 -233 240 -132 388 -242 568 -423 126 -126 294
-336 354 -439 346 -602 426 -1236 237 -1895 -166 -582 -646 -1152 -1194 -1420
-239 -116 -524 -202 -785 -236 -121 -16 -449 -16 -560 0 -524 76 -980 291
-1334 631 -165 158 -316 346 -428 530 -151 250 -257 556 -293 850 -19 160 -20
490 0 625 68 475 236 868 505 1185 253 299 610 555 954 687 140 53 419 121
564 137 179 19 513 20 659 1z"/>
<path d="M1175 3549 c-3 -8 -6 -403 -7 -879 l-3 -866 140 0 141 0 -1 166 c-1
457 6 891 14 888 4 -1 101 -105 215 -230 114 -126 213 -228 220 -228 7 0 18
11 24 25 23 49 362 415 385 415 4 0 7 -114 5 -252 -2 -139 -2 -371 0 -515 l2
-262 140 -3 140 -3 -2 861 c-3 713 -5 864 -17 878 -12 14 -19 8 -71 -61 -31
-43 -133 -163 -226 -267 -255 -285 -354 -398 -371 -428 l-16 -26 -26 32 c-98
122 -288 335 -416 466 -83 85 -170 182 -192 215 -50 74 -70 93 -78 74z"/>
<path d="M3158 3512 l-137 -3 0 -852 -1 -852 143 3 142 3 -3 286 -3 286 68 71
c37 39 73 71 79 71 6 0 69 -74 139 -165 70 -91 161 -203 200 -250 40 -47 111
-132 156 -190 l84 -105 173 -3 c103 -1 172 1 172 7 0 5 -39 51 -86 103 -48 51
-150 174 -228 272 -77 98 -186 233 -242 300 -55 67 -119 147 -142 178 l-42 57
36 48 c36 48 75 92 125 142 14 14 92 100 174 191 82 91 199 216 262 279 62 63
112 115 111 117 -2 1 -78 4 -169 5 l-166 3 -43 -49 c-24 -28 -140 -153 -260
-280 -119 -126 -259 -278 -311 -336 -52 -59 -94 -106 -95 -105 0 0 4 87 9 191
5 112 6 270 1 385 l-9 195 -137 -3z"/>
</g>
</svg>
